<svg width="48" height="48" viewBox="0 0 48 48" fill="none" xmlns="http://www.w3.org/2000/svg">
<path d="M6.00014 23.9999C6.00014 14.0588 14.059 5.9999 24.0001 5.9999C33.9413 5.9999 42.0001 14.0588 42.0001 23.9999C42.0001 33.941 33.9413 41.9999 24.0001 41.9999C14.059 41.9999 6.00014 33.941 6.00014 23.9999ZM24.0001 3.42847C12.6396 3.42847 3.42871 12.6393 3.42871 23.9999C3.42871 35.3605 12.6396 44.5713 24.0001 44.5713C35.3607 44.5713 44.5716 35.3605 44.5716 23.9999C44.5716 12.6393 35.3607 3.42847 24.0001 3.42847ZM13.8567 16.625C13.1916 14.8936 14.8921 13.1913 16.6253 13.8565L25.1881 17.1479C26.4764 17.6428 27.6464 18.4027 28.6224 19.3783C29.5984 20.354 30.3586 21.5238 30.8539 22.8119L34.1436 31.3748C34.8087 33.1062 33.1064 34.8085 31.375 34.1433L22.8121 30.8519C21.5239 30.357 20.3539 29.5971 19.3779 28.6214C18.4019 27.6458 17.6417 26.476 17.1464 25.1879L13.8567 16.625ZM16.603 16.6028L19.5464 24.2656C19.9123 25.218 20.4742 26.0829 21.1957 26.8044C21.9171 27.5258 22.782 28.0877 23.7344 28.4536L31.3973 31.397L28.4539 23.7342C28.0879 22.7818 27.5261 21.9169 26.8046 21.1954C26.0832 20.474 25.2183 19.9121 24.2659 19.5462L16.603 16.6028Z" fill="#716040"/>
</svg>
