<svg width="48" height="48" viewBox="0 0 48 48" fill="none" xmlns="http://www.w3.org/2000/svg">
<path d="M37.1997 40.8001H24.9597C25.3517 40.0385 25.6661 39.2385 25.9029 38.4001H37.1997C37.4806 38.4002 37.7526 38.3017 37.9683 38.1219C38.1841 37.9421 38.33 37.6924 38.3805 37.4161L38.3997 37.2001V26.4001C38.3998 26.1192 38.3014 25.8472 38.1216 25.6315C37.9418 25.4157 37.692 25.2698 37.4157 25.2193L37.1997 25.2001H25.1997V29.2945C24.5986 27.9876 23.7879 26.7878 22.7997 25.7425V25.2001H22.2597C21.2144 24.2119 20.0146 23.4012 18.7077 22.8001H22.7997V10.8001C22.8 10.5553 22.7255 10.3163 22.5861 10.1151C22.4466 9.91389 22.249 9.76015 22.0197 9.67447L21.8157 9.61927L21.5997 9.60007H10.7997C10.5189 9.59998 10.2469 9.69841 10.0311 9.87821C9.81534 10.058 9.66948 10.3078 9.61893 10.5841L9.59973 10.8001V22.0969C8.76293 22.3353 7.96293 22.6497 7.19973 23.0401V10.8001C7.19977 9.90516 7.53313 9.04234 8.13481 8.37987C8.73649 7.7174 9.56334 7.30279 10.4541 7.21687L10.7997 7.20007H21.5997C22.4943 7.20006 23.3568 7.53309 24.0192 8.13427C24.6816 8.73545 25.0965 9.56172 25.1829 10.4521L25.1997 10.8001V11.4097L30.4533 5.96407C31.0725 5.3219 31.908 4.93247 32.798 4.87128C33.6879 4.81009 34.5689 5.08149 35.2701 5.63287L35.5485 5.87527L42.1677 12.4153C42.8027 13.0436 43.1814 13.8856 43.2302 14.7776C43.279 15.6696 42.9944 16.5478 42.4317 17.2417L42.1845 17.5201L36.6405 22.8001H37.1997C38.0947 22.7995 38.9578 23.1322 39.6207 23.7335C40.2836 24.3347 40.6988 25.1613 40.7853 26.0521L40.7997 26.4001V37.2001C40.7997 38.0946 40.4667 38.9571 39.8655 39.6195C39.2643 40.2819 38.4381 40.6968 37.5477 40.7833L37.1997 40.8001ZM25.1997 18.5041V22.8001H29.4957L25.1997 18.5041ZM7.35813 27.4609C7.53097 28.0768 7.57895 28.721 7.49926 29.3558C7.41957 29.9905 7.21381 30.6029 6.89407 31.1569C6.57433 31.711 6.14706 32.1956 5.63738 32.5822C5.12769 32.9687 4.54588 33.2496 3.92613 33.4081L2.81733 33.6913C2.73719 34.5026 2.74524 35.3201 2.84133 36.1297L3.68133 36.3289C4.31764 36.4793 4.91649 36.7582 5.44116 37.1484C5.96583 37.5386 6.40524 38.0319 6.73245 38.598C7.05966 39.1641 7.26776 39.7911 7.34398 40.4405C7.42021 41.0899 7.36295 41.748 7.17573 42.3745L6.87093 43.3873C7.49013 43.8785 8.15813 44.2929 8.87493 44.6305L9.65493 43.8049C10.104 43.3294 10.6454 42.9507 11.2461 42.692C11.8468 42.4333 12.494 42.3001 13.148 42.3006C13.802 42.301 14.449 42.4351 15.0493 42.6946C15.6496 42.9541 16.1905 43.3336 16.6389 43.8097L17.4477 44.6689C18.1517 44.3441 18.8093 43.9457 19.4205 43.4737L19.0461 42.1393C18.8729 41.5232 18.8247 40.8787 18.9042 40.2437C18.9837 39.6087 19.1894 38.996 19.5091 38.4417C19.8289 37.8874 20.2563 37.4026 20.7662 37.0158C21.276 36.6291 21.8581 36.3482 22.4781 36.1897L23.5821 35.9089C23.6624 35.0968 23.6544 34.2784 23.5581 33.4681L22.7229 33.2713C22.0863 33.1208 21.4872 32.8419 20.9624 32.4515C20.4375 32.0612 19.998 31.5677 19.6707 31.0013C19.3435 30.4349 19.1355 29.8076 19.0594 29.1579C18.9834 28.5083 19.0409 27.8499 19.2285 27.2233L19.5309 26.2129C18.9127 25.7224 18.2404 25.3045 17.5269 24.9673L16.7469 25.7929C16.298 26.2685 15.7567 26.6474 15.1561 26.9063C14.5556 27.1652 13.9084 27.2986 13.2544 27.2984C12.6004 27.2981 11.9534 27.1643 11.353 26.905C10.7526 26.6457 10.2115 26.2664 9.76293 25.7905L8.95413 24.9313C8.25488 25.2541 7.59396 25.6542 6.98373 26.1241L7.35813 27.4609ZM13.1997 37.2001C12.5632 37.2001 11.9528 36.9472 11.5027 36.4971C11.0526 36.047 10.7997 35.4366 10.7997 34.8001C10.7997 34.1636 11.0526 33.5531 11.5027 33.103C11.9528 32.6529 12.5632 32.4001 13.1997 32.4001C13.8362 32.4001 14.4467 32.6529 14.8968 33.103C15.3469 33.5531 15.5997 34.1636 15.5997 34.8001C15.5997 35.4366 15.3469 36.047 14.8968 36.4971C14.4467 36.9472 13.8362 37.2001 13.1997 37.2001Z" fill="#716040"/>
</svg>
