<svg width="48" height="48" viewBox="0 0 48 48" fill="none" xmlns="http://www.w3.org/2000/svg">
<path d="M16 5.5C16 5.10218 16.158 4.72064 16.4393 4.43934C16.7206 4.15804 17.1022 4 17.5 4H20.5C20.8978 4 21.2794 4.15804 21.5607 4.43934C21.842 4.72064 22 5.10218 22 5.5V6H24.5C24.8978 6 25.2794 6.15804 25.5607 6.43934C25.842 6.72064 26 7.10218 26 7.5V11.07C26.0173 11.07 26.034 11.0713 26.05 11.074C29.4091 11.391 32.5902 12.7302 35.1647 14.911C37.7391 17.0918 39.5832 20.0094 40.4482 23.2706C41.3132 26.5318 41.1577 29.9798 40.0026 33.1499C38.8475 36.32 36.7483 39.0598 33.988 41H40.5C40.8978 41 41.2794 41.158 41.5607 41.4393C41.842 41.7206 42 42.1022 42 42.5C42 42.8978 41.842 43.2794 41.5607 43.5607C41.2794 43.842 40.8978 44 40.5 44H7.5C7.10218 44 6.72064 43.842 6.43934 43.5607C6.15804 43.2794 6 42.8978 6 42.5C6 42.1022 6.15804 41.7206 6.43934 41.4393C6.72064 41.158 7.10218 41 7.5 41H24.554C27.9992 40.9856 31.3086 39.6544 33.8043 37.2793C36.3 34.9041 37.7932 31.6646 37.978 28.2243C38.1628 24.784 37.0253 21.4032 34.7984 18.7743C32.5716 16.1455 29.4239 14.4675 26 14.084V24.5C26 24.8978 25.842 25.2794 25.5607 25.5607C25.2794 25.842 24.8978 26 24.5 26H23V28C23 29.0609 22.5786 30.0783 21.8284 30.8284C21.0783 31.5786 20.0609 32 19 32C17.9391 32 16.9217 31.5786 16.1716 30.8284C15.4214 30.0783 15 29.0609 15 28V26H13.5C13.1022 26 12.7206 25.842 12.4393 25.5607C12.158 25.2794 12 24.8978 12 24.5V7.5C12 7.10218 12.158 6.72064 12.4393 6.43934C12.7206 6.15804 13.1022 6 13.5 6H16V5.5ZM18 26V28C18 28.2652 18.1054 28.5196 18.2929 28.7071C18.4804 28.8946 18.7348 29 19 29C19.2652 29 19.5196 28.8946 19.7071 28.7071C19.8946 28.5196 20 28.2652 20 28V26H18ZM15 23H23V9H15V23ZM11.5 35C11.1022 35 10.7206 35.158 10.4393 35.4393C10.158 35.7206 10 36.1022 10 36.5C10 36.8978 10.158 37.2794 10.4393 37.5607C10.7206 37.842 11.1022 38 11.5 38H26.5C26.8978 38 27.2794 37.842 27.5607 37.5607C27.842 37.2794 28 36.8978 28 36.5C28 36.1022 27.842 35.7206 27.5607 35.4393C27.2794 35.158 26.8978 35 26.5 35H11.5Z" fill="#716040"/>
</svg>
