<svg width="48" height="48" viewBox="0 0 48 48" fill="none" xmlns="http://www.w3.org/2000/svg">
<path d="M22.5 27C24.0913 27 25.6174 27.6321 26.7426 28.7574C27.8679 29.8826 28.5 31.4087 28.5 33C28.5 35.895 26.724 38.19 24.267 39.69C21.81 41.184 18.525 42 15 42C11.475 42 8.19 41.184 5.733 39.69C3.273 38.19 1.5 35.895 1.5 33C1.5 31.4087 2.13214 29.8826 3.25736 28.7574C4.38258 27.6321 5.9087 27 7.5 27H22.5ZM7.5 30C6.70435 30 5.94129 30.3161 5.37868 30.8787C4.81607 31.4413 4.5 32.2044 4.5 33C4.5 34.524 5.412 35.976 7.296 37.125C9.18 38.274 11.898 39 15 39C18.102 39 20.82 38.274 22.704 37.125C24.588 35.976 25.5 34.524 25.5 33C25.5 32.2044 25.1839 31.4413 24.6213 30.8787C24.0587 30.3161 23.2956 30 22.5 30H7.5ZM42.456 27.024C43.5646 27.1369 44.592 27.6572 45.339 28.4841C46.0861 29.3109 46.4998 30.3856 46.5 31.5C46.5 33.813 45.09 35.727 43.197 36.99C41.289 38.262 38.739 39 36 39C33.903 39 31.92 38.562 30.249 37.791C30.729 36.93 31.089 35.988 31.299 34.962C32.568 35.592 34.191 36 36 36C38.229 36 40.182 35.394 41.532 34.494C42.891 33.588 43.5 32.499 43.5 31.5C43.5001 31.1542 43.3807 30.819 43.162 30.5511C42.9433 30.2833 42.6388 30.0992 42.3 30.03L42 30H30.978C30.5952 28.9201 30.0097 27.9233 29.253 27.063C29.4988 27.0214 29.7477 27.0004 29.997 27H41.997L42.456 27.024ZM36.696 10.524C38.3597 10.6955 39.9008 11.4778 41.0212 12.7195C42.1417 13.9613 42.7619 15.5744 42.762 17.247L42.726 17.937C42.5539 19.5997 41.7717 21.1396 40.5306 22.2594C39.2896 23.3791 37.6776 23.9992 36.006 24L35.316 23.964C33.7705 23.8063 32.3267 23.1203 31.2282 22.0218C30.1297 20.9233 29.4437 19.4795 29.286 17.934L29.25 17.244C29.2492 16.3566 29.4234 15.4777 29.7627 14.6577C30.1019 13.8376 30.5995 13.0925 31.227 12.465C31.8545 11.8375 32.5996 11.3399 33.4197 11.0007C34.2397 10.6614 35.1186 10.4872 36.006 10.488L36.696 10.524ZM15 7.5C17.188 7.5 19.2865 8.36919 20.8336 9.91637C22.3808 11.4635 23.25 13.562 23.25 15.75C23.25 17.938 22.3808 20.0365 20.8336 21.5836C19.2865 23.1308 17.188 24 15 24C12.812 24 10.7135 23.1308 9.16637 21.5836C7.61919 20.0365 6.75 17.938 6.75 15.75C6.75 13.562 7.61919 11.4635 9.16637 9.91637C10.7135 8.36919 12.812 7.5 15 7.5ZM36.006 13.491C35.0098 13.491 34.0545 13.8867 33.3501 14.5911C32.6457 15.2955 32.25 16.2508 32.25 17.247C32.25 18.2432 32.6457 19.1985 33.3501 19.9029C34.0545 20.6073 35.0098 21.003 36.006 21.003C37.0022 21.003 37.9575 20.6073 38.6619 19.9029C39.3663 19.1985 39.762 18.2432 39.762 17.247C39.762 16.2508 39.3663 15.2955 38.6619 14.5911C37.9575 13.8867 37.0022 13.491 36.006 13.491ZM15 10.5C13.6076 10.5 12.2723 11.0531 11.2877 12.0377C10.3031 13.0223 9.75 14.3576 9.75 15.75C9.75 17.1424 10.3031 18.4777 11.2877 19.4623C12.2723 20.4469 13.6076 21 15 21C16.3924 21 17.7277 20.4469 18.7123 19.4623C19.6969 18.4777 20.25 17.1424 20.25 15.75C20.25 14.3576 19.6969 13.0223 18.7123 12.0377C17.7277 11.0531 16.3924 10.5 15 10.5Z" fill="#716040"/>
</svg>
